solid Mini_ZOWI
facet normal 1.2236400306973168e-15 -2.980239287696301e-08 -0.9999999999999996
  outer loop
    vertex 27.371165137104324 13.687852262406476 70.50991696558104
    vertex 38.51368607865524 26.39560008320744 70.50991658685976
    vertex 38.51368607865607 8.424129373184321 70.50991712245259
  endloop
endfacet
facet normal 1.2236400306973168e-15 -2.980239287696301e-08 -0.9999999999999996
  outer loop
    vertex 38.51368607865524 26.39560008320744 70.50991658685976
    vertex 27.371165137104324 13.687852262406476 70.50991696558104
    vertex 27.37116513710402 20.340103405427318 70.50991676732804
  endloop
endfacet
facet normal 1.2236400306973168e-15 -2.980239287696301e-08 -0.9999999999999996
  outer loop
    vertex 27.37116513710402 20.340103405427318 70.50991676732804
    vertex 27.371165137104324 13.687852262406476 70.50991696558104
    vertex 26.31399854828027 12.310125940530865 70.50991700664058
  endloop
endfacet
facet normal 1.2236400306973168e-15 -2.980239287696301e-08 -0.9999999999999996
  outer loop
    vertex 27.37116513710402 20.340103405427318 70.50991676732804
    vertex 26.31399854828027 12.310125940530865 70.50991700664058
    vertex 26.31399854827983 21.71782972730295 70.50991672626849
  endloop
endfacet
facet normal 1.2236400306973168e-15 -2.980239287696301e-08 -0.9999999999999996
  outer loop
    vertex 26.31399854827983 21.71782972730295 70.50991672626849
    vertex 26.31399854828027 12.310125940530865 70.50991700664058
    vertex 24.93627222640473 11.252959351706766 70.50991703814667
  endloop
endfacet
facet normal 1.2236400306973168e-15 -2.980239287696301e-08 -0.9999999999999996
  outer loop
    vertex 26.31399854827983 21.71782972730295 70.50991672626849
    vertex 24.93627222640473 11.252959351706766 70.50991703814667
    vertex 24.936272226404206 22.774996316126934 70.5099166947624
  endloop
endfacet
facet normal 1.2236400306973168e-15 -2.980239287696301e-08 -0.9999999999999996
  outer loop
    vertex 24.936272226404206 22.774996316126934 70.5099166947624
    vertex 24.93627222640473 11.252959351706766 70.50991703814667
    vertex 23.331875943513154 10.588396651911975 70.50991705795222
  endloop
endfacet
facet normal 1.2236400306973168e-15 -2.980239287696301e-08 -0.9999999999999996
  outer loop
    vertex 24.936272226404206 22.774996316126934 70.5099166947624
    vertex 23.331875943513154 10.588396651911975 70.50991705795222
    vertex 23.669044788990387 23.299899107314967 70.50991667911903
  endloop
endfacet
facet normal 1.2236400306973168e-15 -2.980239287696301e-08 -0.9999999999999996
  outer loop
    vertex 23.669044788990387 23.299899107314967 70.50991667911903
    vertex 23.331875943513154 10.588396651911975 70.50991705795222
    vertex 23.331875943512564 23.43955901592164 70.50991667495684
  endloop
endfacet
facet normal 1.2236400306973168e-15 -2.980239287696301e-08 -0.9999999999999996
  outer loop
    vertex 23.331875943512564 23.43955901592164 70.50991667495684
    vertex 23.331875943513154 10.588396651911975 70.50991705795222
    vertex 21.610146654894365 10.361726690895841 70.50991706470754
  endloop
endfacet
facet normal 1.2236400306973168e-15 -2.980239287696301e-08 -0.9999999999999996
  outer loop
    vertex 23.331875943512564 23.43955901592164 70.50991667495684
    vertex 21.610146654894365 10.361726690895841 70.50991706470754
    vertex 21.610146654893736 23.6662289769375 70.50991666820153
  endloop
endfacet
facet normal 1.2236400306973168e-15 -2.980239287696301e-08 -0.9999999999999996
  outer loop
    vertex 21.610146654893736 23.6662289769375 70.50991666820153
    vertex 21.610146654894365 10.361726690895841 70.50991706470754
    vertex 19.888417366275537 10.588396651911816 70.50991705795222
  endloop
endfacet
facet normal 1.2236400306973168e-15 -2.980239287696301e-08 -0.9999999999999996
  outer loop
    vertex 21.610146654893736 23.6662289769375 70.50991666820153
    vertex 19.888417366275537 10.588396651911816 70.50991705795222
    vertex 19.888417366274947 23.43955901592141 70.50991667495684
  endloop
endfacet
facet normal 1.2236400306973168e-15 -2.980239287696301e-08 -0.9999999999999996
  outer loop
    vertex 19.888417366274947 23.43955901592141 70.50991667495684
    vertex 19.888417366275537 10.588396651911816 70.50991705795222
    vertex 18.28402108338389 11.252959351706382 70.50991703814665
  endloop
endfacet
facet normal 1.2236400306973168e-15 -2.980239287696301e-08 -0.9999999999999996
  outer loop
    vertex 19.888417366274947 23.43955901592141 70.50991667495684
    vertex 18.28402108338389 11.252959351706382 70.50991703814665
    vertex 18.6690447889904 22.934478356824194 70.50991669000945
  endloop
endfacet
facet normal 1.2236400306973168e-15 -2.980239287696301e-08 -0.9999999999999996
  outer loop
    vertex 18.6690447889904 22.934478356824194 70.50991669000945
    vertex 18.28402108338389 11.252959351706382 70.50991703814665
    vertex 18.28402108338337 22.774996316126554 70.50991669476238
  endloop
endfacet
facet normal 1.2236400306973168e-15 -2.980239287696301e-08 -0.9999999999999996
  outer loop
    vertex 18.28402108338337 22.774996316126554 70.50991669476238
    vertex 18.28402108338389 11.252959351706382 70.50991703814665
    vertex 16.906294761508278 12.310125940530481 70.50991700664056
  endloop
endfacet
facet normal 1.2236400306973168e-15 -2.980239287696301e-08 -0.9999999999999996
  outer loop
    vertex 18.28402108338337 22.774996316126554 70.50991669476238
    vertex 16.906294761508278 12.310125940530481 70.50991700664056
    vertex 16.90629476150784 21.717829727302455 70.50991672626849
  endloop
endfacet
facet normal 1.2236400306973168e-15 -2.980239287696301e-08 -0.9999999999999996
  outer loop
    vertex 16.90629476150784 21.717829727302455 70.50991672626849
    vertex 16.906294761508278 12.310125940530481 70.50991700664056
    vertex 15.84912817268408 13.687852262406002 70.50991696558101
  endloop
endfacet
facet normal 1.2236400306973168e-15 -2.980239287696301e-08 -0.9999999999999996
  outer loop
    vertex 16.90629476150784 21.717829727302455 70.50991672626849
    vertex 15.84912817268408 13.687852262406002 70.50991696558101
    vertex 15.849128172683782 20.340103405426866 70.50991676732802
  endloop
endfacet
facet normal 1.2236400306973168e-15 -2.980239287696301e-08 -0.9999999999999996
  outer loop
    vertex 15.849128172683782 20.340103405426866 70.50991676732802
    vertex 15.84912817268408 13.687852262406002 70.50991696558101
    vertex 2.6284556392841827 8.424129373182742 70.50991712245255
  endloop
endfacet
facet normal 1.2236400306973168e-15 -2.980239287696301e-08 -0.9999999999999996
  outer loop
    vertex 15.849128172683782 20.340103405426866 70.50991676732802
    vertex 2.6284556392841827 8.424129373182742 70.50991712245255
    vertex 2.6284556392833593 26.39560008320573 70.50991658685972
  endloop
endfacet
facet normal 0.7933533402912231 0.6087614290087362 -1.8142545517454948e-08
  outer loop
    vertex 27.371165137104008 20.34010370369711 80.51816676732804
    vertex 26.31399854827983 21.71782972730295 70.50991672626849
    vertex 26.313998548279795 21.717830025572745 80.51816672626849
  endloop
endfacet
facet normal 0.7933533402912231 0.6087614290087362 -1.8142545517454948e-08
  outer loop
    vertex 26.31399854827983 21.71782972730295 70.50991672626849
    vertex 27.371165137104008 20.34010370369711 80.51816676732804
    vertex 27.37116513710402 20.340103405427318 70.50991676732804
  endloop
endfacet
facet normal 0.7933533402912638 -0.6087614290086832 1.814254876078429e-08
  outer loop
    vertex 26.31399854828026 12.310126238800661 80.51816700664058
    vertex 27.371165137104324 13.687852262406476 70.50991696558104
    vertex 27.371165137104303 13.687852560676271 80.51816696558105
  endloop
endfacet
facet normal 0.7933533402912638 -0.6087614290086832 1.814254876078429e-08
  outer loop
    vertex 27.371165137104324 13.687852262406476 70.50991696558104
    vertex 26.31399854828026 12.310126238800661 80.51816700664058
    vertex 26.31399854828027 12.310125940530865 70.50991700664058
  endloop
endfacet
facet normal 0.6087614290087231 -0.7933533402912328 2.3643828662188442e-08
  outer loop
    vertex 26.31399854828026 12.310126238800661 80.51816700664058
    vertex 24.93627222640473 11.252959351706766 70.50991703814667
    vertex 26.31399854828027 12.310125940530865 70.50991700664058
  endloop
endfacet
facet normal 0.6087614290087231 -0.7933533402912328 2.3643828662188442e-08
  outer loop
    vertex 24.93627222640473 11.252959351706766 70.50991703814667
    vertex 26.31399854828026 12.310126238800661 80.51816700664058
    vertex 24.936272226404718 11.25295964997656 80.51816703814666
  endloop
endfacet
facet normal 0.3826834323651487 -0.9238795325112621 2.7533821547424585e-08
  outer loop
    vertex 24.936272226404718 11.25295964997656 80.51816703814666
    vertex 23.331875943513154 10.588396651911975 70.50991705795222
    vertex 24.93627222640473 11.252959351706766 70.50991703814667
  endloop
endfacet
facet normal 0.3826834323651487 -0.9238795325112621 2.7533821547424585e-08
  outer loop
    vertex 23.331875943513154 10.588396651911975 70.50991705795222
    vertex 24.936272226404718 11.25295964997656 80.51816703814666
    vertex 23.33187594351313 10.588396950181771 80.51816705795224
  endloop
endfacet
facet normal 0.13052619222009937 -0.9914448613738038 2.9547429638423798e-08
  outer loop
    vertex 23.33187594351313 10.588396950181771 80.51816705795224
    vertex 21.610146654894365 10.361726690895841 70.50991706470754
    vertex 23.331875943513154 10.588396651911975 70.50991705795222
  endloop
endfacet
facet normal 0.13052619222009937 -0.9914448613738038 2.9547429638423798e-08
  outer loop
    vertex 21.610146654894365 10.361726690895841 70.50991706470754
    vertex 23.33187594351313 10.588396950181771 80.51816705795224
    vertex 21.61014665489434 10.361726989165636 80.51816706470755
  endloop
endfacet
facet normal -0.13052619222001288 -0.991444861373815 2.954742914243324e-08
  outer loop
    vertex 21.61014665489434 10.361726989165636 80.51816706470755
    vertex 19.888417366275537 10.588396651911816 70.50991705795222
    vertex 21.610146654894365 10.361726690895841 70.50991706470754
  endloop
endfacet
facet normal -0.13052619222001288 -0.991444861373815 2.954742914243324e-08
  outer loop
    vertex 19.888417366275537 10.588396651911816 70.50991705795222
    vertex 21.61014665489434 10.361726989165636 80.51816706470755
    vertex 19.88841736627553 10.588396950181613 80.51816705795223
  endloop
endfacet
facet normal -0.3826834323650217 -0.9238795325113147 2.7533820414543747e-08
  outer loop
    vertex 19.888417366275537 10.588396651911816 70.50991705795222
    vertex 18.284021083383877 11.252959649976178 80.51816703814663
    vertex 18.28402108338389 11.252959351706382 70.50991703814665
  endloop
endfacet
facet normal -0.3826834323650217 -0.9238795325113147 2.7533820414543747e-08
  outer loop
    vertex 18.284021083383877 11.252959649976178 80.51816703814663
    vertex 19.888417366275537 10.588396651911816 70.50991705795222
    vertex 19.88841736627553 10.588396950181613 80.51816705795223
  endloop
endfacet
facet normal -0.6087614290087033 -0.793353340291248 2.3643826945855782e-08
  outer loop
    vertex 18.284021083383877 11.252959649976178 80.51816703814663
    vertex 16.906294761508278 12.310125940530481 70.50991700664056
    vertex 18.28402108338389 11.252959351706382 70.50991703814665
  endloop
endfacet
facet normal -0.6087614290087033 -0.793353340291248 2.3643826945855782e-08
  outer loop
    vertex 16.906294761508278 12.310125940530481 70.50991700664056
    vertex 18.284021083383877 11.252959649976178 80.51816703814663
    vertex 16.90629476150826 12.310126238800278 80.51816700664057
  endloop
endfacet
facet normal -0.7933533402912023 -0.6087614290087635 1.814254641172625e-08
  outer loop
    vertex 16.906294761508278 12.310125940530481 70.50991700664056
    vertex 15.849128172684075 13.687852560675797 80.51816696558103
    vertex 15.84912817268408 13.687852262406002 70.50991696558101
  endloop
endfacet
facet normal -0.7933533402912023 -0.6087614290087635 1.814254641172625e-08
  outer loop
    vertex 15.849128172684075 13.687852560675797 80.51816696558103
    vertex 16.906294761508278 12.310125940530481 70.50991700664056
    vertex 16.90629476150826 12.310126238800278 80.51816700664057
  endloop
endfacet
facet normal -0.793353340291256 0.6087614290086932 -1.814254820232905e-08
  outer loop
    vertex 15.849128172683782 20.340103405426866 70.50991676732802
    vertex 16.90629476150783 21.717830025572248 80.51816672626849
    vertex 16.90629476150784 21.717829727302455 70.50991672626849
  endloop
endfacet
facet normal -0.793353340291256 0.6087614290086932 -1.814254820232905e-08
  outer loop
    vertex 16.90629476150783 21.717830025572248 80.51816672626849
    vertex 15.849128172683782 20.340103405426866 70.50991676732802
    vertex 15.849128172683772 20.34010370369666 80.51816676732803
  endloop
endfacet
facet normal -0.6087614290087286 0.7933533402912287 -2.3643829181171283e-08
  outer loop
    vertex 16.90629476150783 21.717830025572248 80.51816672626849
    vertex 18.28402108338337 22.774996316126554 70.50991669476238
    vertex 16.90629476150784 21.717829727302455 70.50991672626849
  endloop
endfacet
facet normal -0.6087614290087286 0.7933533402912287 -2.3643829181171283e-08
  outer loop
    vertex 18.28402108338337 22.774996316126554 70.50991669476238
    vertex 16.90629476150783 21.717830025572248 80.51816672626849
    vertex 18.28402108338334 22.774996614396347 80.51816669476236
  endloop
endfacet
facet normal -0.38268343236517816 0.9238795325112499 -2.7533820732038417e-08
  outer loop
    vertex 18.28402108338334 22.774996614396347 80.51816669476236
    vertex 18.6690447889904 22.934478356824194 70.50991669000945
    vertex 18.28402108338337 22.774996316126554 70.50991669476238
  endloop
endfacet
facet normal -0.38268343236517816 0.9238795325112499 -2.7533820732038417e-08
  outer loop
    vertex 18.6690447889904 22.934478356824194 70.50991669000945
    vertex 18.28402108338334 22.774996614396347 80.51816669476236
    vertex 18.669044788990373 22.93447853563856 76.50991669000943
  endloop
endfacet
facet normal -0.38268343236517816 0.9238795325112499 -2.7533820732038417e-08
  outer loop
    vertex 18.669044788990373 22.93447853563856 76.50991669000943
    vertex 18.28402108338334 22.774996614396347 80.51816669476236
    vertex 19.888417366274926 23.43955919473578 76.50991667495684
  endloop
endfacet
facet normal -0.38268343236517816 0.9238795325112499 -2.7533820732038417e-08
  outer loop
    vertex 19.888417366274926 23.43955919473578 76.50991667495684
    vertex 18.28402108338334 22.774996614396347 80.51816669476236
    vertex 19.888417366274936 23.439559314191207 80.51816667495683
  endloop
endfacet
facet normal -0.13052619222008588 0.9914448613738055 -2.9547429139905538e-08
  outer loop
    vertex 19.888417366274936 23.439559314191207 80.51816667495683
    vertex 21.610146654893732 23.666229155751868 76.50991666820153
    vertex 19.888417366274926 23.43955919473578 76.50991667495684
  endloop
endfacet
facet normal -0.13052619222008588 0.9914448613738055 -2.9547429139905538e-08
  outer loop
    vertex 21.610146654893732 23.666229155751868 76.50991666820153
    vertex 19.888417366274936 23.439559314191207 80.51816667495683
    vertex 21.610146654893732 23.666229275207296 80.51816666820154
  endloop
endfacet
facet normal 0.13052619221996214 0.9914448613738218 -2.954742927785967e-08
  outer loop
    vertex 21.610146654893732 23.666229275207296 80.51816666820154
    vertex 23.33187594351255 23.43955919473598 76.50991667495684
    vertex 21.610146654893732 23.666229155751868 76.50991666820153
  endloop
endfacet
facet normal 0.13052619221996214 0.9914448613738218 -2.954742927785967e-08
  outer loop
    vertex 23.33187594351255 23.43955919473598 76.50991667495684
    vertex 21.610146654893732 23.666229275207296 80.51816666820154
    vertex 23.33187594351255 23.43955931419143 80.51816667495686
  endloop
endfacet
facet normal 0.3826834323650745 0.9238795325112927 -2.7533823499134493e-08
  outer loop
    vertex 23.33187594351255 23.43955931419143 80.51816667495686
    vertex 23.669044788990366 23.299899286129335 76.50991667911904
    vertex 23.33187594351255 23.43955919473598 76.50991667495684
  endloop
endfacet
facet normal 0.3826834323650745 0.9238795325112927 -2.7533823499134493e-08
  outer loop
    vertex 23.669044788990366 23.299899286129335 76.50991667911904
    vertex 23.33187594351255 23.43955931419143 80.51816667495686
    vertex 24.936272226404192 22.77499661439673 80.51816669476239
  endloop
endfacet
facet normal 0.3826834323650745 0.9238795325112927 -2.7533823499134493e-08
  outer loop
    vertex 23.669044788990366 23.299899286129335 76.50991667911904
    vertex 24.936272226404206 22.774996316126934 70.5099166947624
    vertex 23.669044788990387 23.299899107314967 70.50991667911903
  endloop
endfacet
facet normal 0.3826834323650745 0.9238795325112927 -2.7533823499134493e-08
  outer loop
    vertex 24.936272226404206 22.774996316126934 70.5099166947624
    vertex 23.669044788990366 23.299899286129335 76.50991667911904
    vertex 24.936272226404192 22.77499661439673 80.51816669476239
  endloop
endfacet
facet normal 0.6087614290086634 0.7933533402912788 -2.3643826433324636e-08
  outer loop
    vertex 24.936272226404192 22.77499661439673 80.51816669476239
    vertex 26.31399854827983 21.71782972730295 70.50991672626849
    vertex 24.936272226404206 22.774996316126934 70.5099166947624
  endloop
endfacet
facet normal 0.6087614290086634 0.7933533402912788 -2.3643826433324636e-08
  outer loop
    vertex 26.31399854827983 21.71782972730295 70.50991672626849
    vertex 24.936272226404192 22.77499661439673 80.51816669476239
    vertex 26.313998548279795 21.717830025572745 80.51816672626849
  endloop
endfacet
facet normal -1.6850107717425894e-15 2.9802393191936184e-08 0.9999999999999996
  outer loop
    vertex 36.513686078655404 23.032417053589025 72.51816668709064
    vertex 26.76663057154884 16.18536680107498 72.51816689114911
    vertex 36.51368607865594 11.580861281686357 72.51816702837444
  endloop
endfacet
facet normal -1.6850107717425894e-15 2.9802393191936184e-08 0.9999999999999996
  outer loop
    vertex 26.76663057154884 16.18536680107498 72.51816689114911
    vertex 36.513686078655404 23.032417053589025 72.51816668709064
    vertex 26.82472995499339 17.766872395808566 72.51816684401646
  endloop
endfacet
facet normal -1.6850107717425894e-15 2.9802393191936184e-08 0.9999999999999996
  outer loop
    vertex 26.76663057154884 16.18536680107498 72.51816689114911
    vertex 26.82472995499339 17.766872395808566 72.51816684401646
    vertex 24.88758179282515 20.29141303169878 72.51816676877911
  endloop
endfacet
facet normal -1.6850107717425894e-15 2.9802393191936184e-08 0.9999999999999996
  outer loop
    vertex 26.76663057154884 16.18536680107498 72.51816689114911
    vertex 24.88758179282515 20.29141303169878 72.51816676877911
    vertex 24.887581792825497 13.736542755836293 72.51816696412993
  endloop
endfacet
facet normal -1.6850107717425894e-15 2.9802393191936184e-08 0.9999999999999996
  outer loop
    vertex 24.887581792825497 13.736542755836293 72.51816696412993
    vertex 24.88758179282515 20.29141303169878 72.51816676877911
    vertex 23.927643265824514 12.999956017267609 72.518166986082
  endloop
endfacet
facet normal -1.6850107717425894e-15 2.9802393191936184e-08 0.9999999999999996
  outer loop
    vertex 23.927643265824514 12.999956017267609 72.518166986082
    vertex 24.88758179282515 20.29141303169878 72.51816676877911
    vertex 23.92764326582417 21.027999770267307 72.51816674682708
  endloop
endfacet
facet normal -1.6850107717425894e-15 2.9802393191936184e-08 0.9999999999999996
  outer loop
    vertex 23.927643265824514 12.999956017267609 72.518166986082
    vertex 23.92764326582417 21.027999770267307 72.51816674682708
    vertex 22.80977117463281 12.536918236097529 72.51816699988163
  endloop
endfacet
facet normal -1.6850107717425894e-15 2.9802393191936184e-08 0.9999999999999996
  outer loop
    vertex 22.80977117463281 12.536918236097529 72.51816699988163
    vertex 23.92764326582417 21.027999770267307 72.51816674682708
    vertex 22.809771174632417 21.491037551437252 72.51816673302746
  endloop
endfacet
facet normal -1.6850107717425894e-15 2.9802393191936184e-08 0.9999999999999996
  outer loop
    vertex 22.80977117463281 12.536918236097529 72.51816699988163
    vertex 22.809771174632417 21.491037551437252 72.51816673302746
    vertex 21.610146654894233 12.378984671906833 72.51816700458843
  endloop
endfacet
facet normal -1.6850107717425894e-15 2.9802393191936184e-08 0.9999999999999996
  outer loop
    vertex 21.610146654894233 12.378984671906833 72.51816700458843
    vertex 22.809771174632417 21.491037551437252 72.51816673302746
    vertex 21.610146654893846 21.648971115627905 72.51816672832065
  endloop
endfacet
facet normal -1.6850107717425894e-15 2.9802393191936184e-08 0.9999999999999996
  outer loop
    vertex 21.610146654894233 12.378984671906833 72.51816700458843
    vertex 21.610146654893846 21.648971115627905 72.51816672832065
    vertex 20.410522135155638 12.536918236097394 72.51816699988161
  endloop
endfacet
facet normal -1.6850107717425894e-15 2.9802393191936184e-08 0.9999999999999996
  outer loop
    vertex 20.410522135155638 12.536918236097394 72.51816699988161
    vertex 21.610146654893846 21.648971115627905 72.51816672832065
    vertex 20.41052213515529 21.491037551437095 72.51816673302743
  endloop
endfacet
facet normal -1.6850107717425894e-15 2.9802393191936184e-08 0.9999999999999996
  outer loop
    vertex 20.410522135155638 12.536918236097394 72.51816699988161
    vertex 20.41052213515529 21.491037551437095 72.51816673302743
    vertex 19.292650043963977 12.999956017267316 72.51816698608197
  endloop
endfacet
facet normal -1.6850107717425894e-15 2.9802393191936184e-08 0.9999999999999996
  outer loop
    vertex 19.292650043963977 12.999956017267316 72.51816698608197
    vertex 20.41052213515529 21.491037551437095 72.51816673302743
    vertex 19.292650043963576 21.027999770267083 72.51816674682706
  endloop
endfacet
facet normal -1.6850107717425894e-15 2.9802393191936184e-08 0.9999999999999996
  outer loop
    vertex 19.292650043963977 12.999956017267316 72.51816698608197
    vertex 19.292650043963576 21.027999770267083 72.51816674682706
    vertex 18.332711516962956 13.736542755835842 72.51816696412993
  endloop
endfacet
facet normal -1.6850107717425894e-15 2.9802393191936184e-08 0.9999999999999996
  outer loop
    vertex 18.332711516962956 13.736542755835842 72.51816696412993
    vertex 19.292650043963576 21.027999770267083 72.51816674682706
    vertex 18.332711516962636 20.291413031698422 72.51816676877911
  endloop
endfacet
facet normal -1.6850107717425894e-15 2.9802393191936184e-08 0.9999999999999996
  outer loop
    vertex 18.332711516962956 13.736542755835842 72.51816696412993
    vertex 18.332711516962636 20.291413031698422 72.51816676877911
    vertex 16.514868435483383 16.10560198346364 72.5181668935263
  endloop
endfacet
facet normal -1.6850107717425894e-15 2.9802393191936184e-08 0.9999999999999996
  outer loop
    vertex 16.514868435483383 16.10560198346364 72.5181668935263
    vertex 18.332711516962636 20.291413031698422 72.51816676877911
    vertex 16.465475659436283 17.857983885090952 72.51816684130112
  endloop
endfacet
facet normal -1.6850107717425894e-15 2.9802393191936184e-08 0.9999999999999996
  outer loop
    vertex 16.514868435483383 16.10560198346364 72.5181668935263
    vertex 16.465475659436283 17.857983885090952 72.51816684130112
    vertex 4.628455639284044 11.373105739566364 72.51816703456598
  endloop
endfacet
facet normal -1.6850107717425894e-15 2.9802393191936184e-08 0.9999999999999996
  outer loop
    vertex 4.628455639284044 11.373105739566364 72.51816703456598
    vertex 16.465475659436283 17.857983885090952 72.51816684130112
    vertex 4.628455639283446 23.27972284925855 72.5181666797203
  endloop
endfacet
facet normal -0.41642861312649243 -0.9091684168346068 2.7095394813775458e-08
  outer loop
    vertex 16.465475659436283 17.857983885090952 72.51816684130112
    vertex 4.628455639283474 23.279723087677695 80.51816667972031
    vertex 4.628455639283446 23.27972284925855 72.5181666797203
  endloop
endfacet
facet normal -0.41642861312649243 -0.9091684168346068 2.7095394813775458e-08
  outer loop
    vertex 4.628455639283474 23.279723087677695 80.51816667972031
    vertex 16.465475659436283 17.857983885090952 72.51816684130112
    vertex 16.465475659436272 17.857984123510096 80.51816684130114
  endloop
endfacet
facet normal 1.0 4.8997503442015257e-14 -2.1149754265834796e-15
  outer loop
    vertex 4.6284556392840495 11.373105977985507 80.518167034566
    vertex 4.628455639283446 23.27972284925855 72.5181666797203
    vertex 4.628455639283474 23.279723087677695 80.51816667972031
  endloop
endfacet
facet normal 1.0 4.8997503442015257e-14 -2.1149754265834796e-15
  outer loop
    vertex 4.628455639283446 23.27972284925855 72.5181666797203
    vertex 4.6284556392840495 11.373105977985507 80.518167034566
    vertex 4.628455639284044 11.373105739566364 72.51816703456598
  endloop
endfacet
facet normal -0.36990316920721394 0.9290703124147593 -2.7688518626739288e-08
  outer loop
    vertex 4.6284556392840495 11.373105977985507 80.518167034566
    vertex 16.514868435483383 16.10560198346364 72.5181668935263
    vertex 4.628455639284044 11.373105739566364 72.51816703456598
  endloop
endfacet
facet normal -0.36990316920721394 0.9290703124147593 -2.7688518626739288e-08
  outer loop
    vertex 16.514868435483383 16.10560198346364 72.5181668935263
    vertex 4.6284556392840495 11.373105977985507 80.518167034566
    vertex 16.514868435483372 16.10560222188278 80.5181668935263
  endloop
endfacet
facet normal 0.7933533402912051 0.6087614290087597 -1.8142546183278693e-08
  outer loop
    vertex 18.332711516962945 13.736542994254984 80.51816696412993
    vertex 16.514868435483383 16.10560198346364 72.5181668935263
    vertex 16.514868435483372 16.10560222188278 80.5181668935263
  endloop
endfacet
facet normal 0.7933533402912051 0.6087614290087597 -1.8142546183278693e-08
  outer loop
    vertex 16.514868435483383 16.10560198346364 72.5181668935263
    vertex 18.332711516962945 13.736542994254984 80.51816696412993
    vertex 18.332711516962956 13.736542755835842 72.51816696412993
  endloop
endfacet
facet normal 0.6087614290086502 0.7933533402912889 -2.3643827335830876e-08
  outer loop
    vertex 18.332711516962956 13.736542755835842 72.51816696412993
    vertex 19.29265004396397 12.999956255686458 80.51816698608195
    vertex 19.292650043963977 12.999956017267316 72.51816698608197
  endloop
endfacet
facet normal 0.6087614290086502 0.7933533402912889 -2.3643827335830876e-08
  outer loop
    vertex 19.29265004396397 12.999956255686458 80.51816698608195
    vertex 18.332711516962956 13.736542755835842 72.51816696412993
    vertex 18.332711516962945 13.736542994254984 80.51816696412993
  endloop
endfacet
facet normal 0.38268343236507335 0.9238795325112933 -2.7533820443861112e-08
  outer loop
    vertex 19.29265004396397 12.999956255686458 80.51816698608195
    vertex 20.410522135155638 12.536918236097394 72.51816699988161
    vertex 19.292650043963977 12.999956017267316 72.51816698608197
  endloop
endfacet
facet normal 0.38268343236507335 0.9238795325112933 -2.7533820443861112e-08
  outer loop
    vertex 20.410522135155638 12.536918236097394 72.51816699988161
    vertex 19.29265004396397 12.999956255686458 80.51816698608195
    vertex 20.410522135155627 12.536918474516536 80.51816699988161
  endloop
endfacet
facet normal 0.13052619221995415 0.9914448613738229 -2.9547429233978903e-08
  outer loop
    vertex 20.410522135155627 12.536918474516536 80.51816699988161
    vertex 21.610146654894233 12.378984671906833 72.51816700458843
    vertex 20.410522135155638 12.536918236097394 72.51816699988161
  endloop
endfacet
facet normal 0.13052619221995415 0.9914448613738229 -2.9547429233978903e-08
  outer loop
    vertex 21.610146654894233 12.378984671906833 72.51816700458843
    vertex 20.410522135155627 12.536918474516536 80.51816699988161
    vertex 21.610146654894233 12.378984910325975 80.51816700458843
  endloop
endfacet
facet normal -0.13052619222007125 0.9914448613738075 -2.9547429394641727e-08
  outer loop
    vertex 21.610146654894233 12.378984910325975 80.51816700458843
    vertex 22.80977117463281 12.536918236097529 72.51816699988163
    vertex 21.610146654894233 12.378984671906833 72.51816700458843
  endloop
endfacet
facet normal -0.13052619222007125 0.9914448613738075 -2.9547429394641727e-08
  outer loop
    vertex 22.80977117463281 12.536918236097529 72.51816699988163
    vertex 21.610146654894233 12.378984910325975 80.51816700458843
    vertex 22.809771174632804 12.536918474516671 80.51816699988163
  endloop
endfacet
facet normal -0.38268343236515545 0.9238795325112592 -2.7533821320179406e-08
  outer loop
    vertex 22.80977117463281 12.536918236097529 72.51816699988163
    vertex 23.9276432658245 12.999956255686751 80.518166986082
    vertex 23.927643265824514 12.999956017267609 72.518166986082
  endloop
endfacet
facet normal -0.38268343236515545 0.9238795325112592 -2.7533821320179406e-08
  outer loop
    vertex 23.9276432658245 12.999956255686751 80.518166986082
    vertex 22.80977117463281 12.536918236097529 72.51816699988163
    vertex 22.809771174632804 12.536918474516671 80.51816699988163
  endloop
endfacet
facet normal -0.608761429008755 0.7933533402912087 -2.364382894197353e-08
  outer loop
    vertex 23.927643265824514 12.999956017267609 72.518166986082
    vertex 24.887581792825483 13.736542994255435 80.51816696412995
    vertex 24.887581792825497 13.736542755836293 72.51816696412993
  endloop
endfacet
facet normal -0.608761429008755 0.7933533402912087 -2.364382894197353e-08
  outer loop
    vertex 24.887581792825483 13.736542994255435 80.51816696412995
    vertex 23.927643265824514 12.999956017267609 72.518166986082
    vertex 23.9276432658245 12.999956255686751 80.518166986082
  endloop
endfacet
facet normal -0.7933533402912551 0.6087614290086946 -1.8142549261912706e-08
  outer loop
    vertex 24.887581792825497 13.736542755836293 72.51816696412993
    vertex 26.766630571548816 16.18536703949412 80.51816689114912
    vertex 26.76663057154884 16.18536680107498 72.51816689114911
  endloop
endfacet
facet normal -0.7933533402912551 0.6087614290086946 -1.8142549261912706e-08
  outer loop
    vertex 26.766630571548816 16.18536703949412 80.51816689114912
    vertex 24.887581792825497 13.736542755836293 72.51816696412993
    vertex 24.887581792825483 13.736542994255435 80.51816696412995
  endloop
endfacet
facet normal 0.4271374703610081 0.9041866961051784 -2.6946926398465e-08
  outer loop
    vertex 26.766630571548816 16.18536703949412 80.51816689114912
    vertex 36.51368607865594 11.580861281686357 72.51816702837444
    vertex 26.76663057154884 16.18536680107498 72.51816689114911
  endloop
endfacet
facet normal 0.4271374703610081 0.9041866961051784 -2.6946926398465e-08
  outer loop
    vertex 36.51368607865594 11.580861281686357 72.51816702837444
    vertex 26.766630571548816 16.18536703949412 80.51816689114912
    vertex 36.51368607865593 11.580861520105499 80.51816702837444
  endloop
endfacet
facet normal -1.0 -4.642602766080047e-14 -7.049911326005483e-16
  outer loop
    vertex 36.51368607865594 11.580861281686357 72.51816702837444
    vertex 36.5136860786554 23.032417292008166 80.51816668709066
    vertex 36.513686078655404 23.032417053589025 72.51816668709064
  endloop
endfacet
facet normal -1.0 -4.642602766080047e-14 -7.049911326005483e-16
  outer loop
    vertex 36.5136860786554 23.032417292008166 80.51816668709066
    vertex 36.51368607865594 11.580861281686357 72.51816702837444
    vertex 36.51368607865593 11.580861520105499 80.51816702837444
  endloop
endfacet
facet normal 0.47749985355264335 -0.8786318283884347 2.6185331800784094e-08
  outer loop
    vertex 36.513686078655404 23.032417053589025 72.51816668709064
    vertex 26.824729954993376 17.766872634227706 80.51816684401649
    vertex 26.82472995499339 17.766872395808566 72.51816684401646
  endloop
endfacet
facet normal 0.47749985355264335 -0.8786318283884347 2.6185331800784094e-08
  outer loop
    vertex 26.824729954993376 17.766872634227706 80.51816684401649
    vertex 36.513686078655404 23.032417053589025 72.51816668709064
    vertex 36.5136860786554 23.032417292008166 80.51816668709066
  endloop
endfacet
facet normal -0.793353340291217 -0.6087614290087441 1.814254590580929e-08
  outer loop
    vertex 26.82472995499339 17.766872395808566 72.51816684401646
    vertex 24.887581792825138 20.291413270117925 80.51816676877912
    vertex 24.88758179282515 20.29141303169878 72.51816676877911
  endloop
endfacet
facet normal -0.793353340291217 -0.6087614290087441 1.814254590580929e-08
  outer loop
    vertex 24.887581792825138 20.291413270117925 80.51816676877912
    vertex 26.82472995499339 17.766872395808566 72.51816684401646
    vertex 26.824729954993376 17.766872634227706 80.51816684401649
  endloop
endfacet
facet normal -0.608761429008667 -0.7933533402912759 2.364382733356405e-08
  outer loop
    vertex 24.887581792825138 20.291413270117925 80.51816676877912
    vertex 23.92764326582417 21.027999770267307 72.51816674682708
    vertex 24.88758179282515 20.29141303169878 72.51816676877911
  endloop
endfacet
facet normal -0.608761429008667 -0.7933533402912759 2.364382733356405e-08
  outer loop
    vertex 23.92764326582417 21.027999770267307 72.51816674682708
    vertex 24.887581792825138 20.291413270117925 80.51816676877912
    vertex 23.92764326582416 21.02800000868645 80.51816674682709
  endloop
endfacet
facet normal -0.38268343236506036 -0.9238795325112986 2.7533820307556342e-08
  outer loop
    vertex 23.92764326582416 21.02800000868645 80.51816674682709
    vertex 22.809771174632417 21.491037551437252 72.51816673302746
    vertex 23.92764326582417 21.027999770267307 72.51816674682708
  endloop
endfacet
facet normal -0.38268343236506036 -0.9238795325112986 2.7533820307556342e-08
  outer loop
    vertex 22.809771174632417 21.491037551437252 72.51816673302746
    vertex 23.92764326582416 21.02800000868645 80.51816674682709
    vertex 22.809771174632402 21.491037789856396 80.51816673302746
  endloop
endfacet
facet normal -0.13052619222004952 -0.9914448613738103 2.9547429118456152e-08
  outer loop
    vertex 22.809771174632402 21.491037789856396 80.51816673302746
    vertex 21.610146654893846 21.648971115627905 72.51816672832065
    vertex 22.809771174632417 21.491037551437252 72.51816673302746
  endloop
endfacet
facet normal -0.13052619222004952 -0.9914448613738103 2.9547429118456152e-08
  outer loop
    vertex 21.610146654893846 21.648971115627905 72.51816672832065
    vertex 22.809771174632402 21.491037789856396 80.51816673302746
    vertex 21.610146654893832 21.648971354047045 80.51816672832067
  endloop
endfacet
facet normal 0.13052619222018258 -0.9914448613737928 2.9547429556387932e-08
  outer loop
    vertex 21.610146654893846 21.648971115627905 72.51816672832065
    vertex 20.410522135155272 21.491037789856236 80.51816673302744
    vertex 20.41052213515529 21.491037551437095 72.51816673302743
  endloop
endfacet
facet normal 0.13052619222018258 -0.9914448613737928 2.9547429556387932e-08
  outer loop
    vertex 20.410522135155272 21.491037789856236 80.51816673302744
    vertex 21.610146654893846 21.648971115627905 72.51816672832065
    vertex 21.610146654893832 21.648971354047045 80.51816672832067
  endloop
endfacet
facet normal 0.38268343236510577 -0.9238795325112799 2.753382152014921e-08
  outer loop
    vertex 20.41052213515529 21.491037551437095 72.51816673302743
    vertex 19.292650043963565 21.028000008686224 80.51816674682705
    vertex 19.292650043963576 21.027999770267083 72.51816674682706
  endloop
endfacet
facet normal 0.38268343236510577 -0.9238795325112799 2.753382152014921e-08
  outer loop
    vertex 19.292650043963565 21.028000008686224 80.51816674682705
    vertex 20.41052213515529 21.491037551437095 72.51816673302743
    vertex 20.410522135155272 21.491037789856236 80.51816673302744
  endloop
endfacet
facet normal 0.6087614290087595 -0.793353340291205 2.3643828837527634e-08
  outer loop
    vertex 19.292650043963565 21.028000008686224 80.51816674682705
    vertex 18.332711516962636 20.291413031698422 72.51816676877911
    vertex 19.292650043963576 21.027999770267083 72.51816674682706
  endloop
endfacet
facet normal 0.6087614290087595 -0.793353340291205 2.3643828837527634e-08
  outer loop
    vertex 18.332711516962636 20.291413031698422 72.51816676877911
    vertex 19.292650043963565 21.028000008686224 80.51816674682705
    vertex 18.332711516962622 20.291413270117562 80.51816676877911
  endloop
endfacet
facet normal 0.793353340291263 -0.6087614290086842 1.814254841690278e-08
  outer loop
    vertex 16.465475659436272 17.857984123510096 80.51816684130114
    vertex 18.332711516962636 20.291413031698422 72.51816676877911
    vertex 18.332711516962622 20.291413270117562 80.51816676877911
  endloop
endfacet
facet normal 0.793353340291263 -0.6087614290086842 1.814254841690278e-08
  outer loop
    vertex 18.332711516962636 20.291413031698422 72.51816676877911
    vertex 16.465475659436272 17.857984123510096 80.51816684130114
    vertex 16.465475659436283 17.857983885090952 72.51816684130112
  endloop
endfacet
facet normal -0.4774998535526482 0.8786318283884321 -2.618533137171527e-08
  outer loop
    vertex 27.371165137104008 20.34010370369711 80.51816676732804
    vertex 38.51368607865524 26.39560008320744 70.50991658685976
    vertex 27.37116513710402 20.340103405427318 70.50991676732804
  endloop
endfacet
facet normal -0.5119550388852719 0.8574878280171989 -0.05115332796922056
  outer loop
    vertex 37.51368607865524 26.39560038147719 80.51816658685978
    vertex 38.51368607865524 26.39560008320744 70.50991658685976
    vertex 27.371165137104008 20.34010370369711 80.51816676732804
  endloop
endfacet
facet normal 0.9950453080412848 2.9630745673085024e-09 0.09942250723565937
  outer loop
    vertex 37.51368607865524 26.39560038147719 80.51816658685978
    vertex 38.51368607865607 8.424129373184321 70.50991712245259
    vertex 38.51368607865524 26.39560008320744 70.50991658685976
  endloop
endfacet
facet normal 0.9950453080412848 2.9630745673085024e-09 0.09942250723565937
  outer loop
    vertex 38.51368607865607 8.424129373184321 70.50991712245259
    vertex 37.51368607865524 26.39560038147719 80.51816658685978
    vertex 37.513686078656065 8.42412967145416 80.5181671224526
  endloop
endfacet
facet normal -0.42713747036100946 -0.9041866961051778 2.694692609558892e-08
  outer loop
    vertex 27.371165137104303 13.687852560676271 80.51816696558105
    vertex 27.371165137104324 13.687852262406476 70.50991696558104
    vertex 38.51368607865607 8.424129373184321 70.50991712245259
  endloop
endfacet
facet normal -0.46014988258601847 -0.8866499862958168 -0.045977030762128654
  outer loop
    vertex 37.513686078656065 8.42412967145416 80.5181671224526
    vertex 27.371165137104303 13.687852560676271 80.51816696558105
    vertex 38.51368607865607 8.424129373184321 70.50991712245259
  endloop
endfacet
facet normal 0.3695957098805617 -0.9282980809037438 -0.040763761213980565
  outer loop
    vertex 3.6275862761771025 8.382440699026562 80.518167123695
    vertex 2.6284556392841827 8.424129373182742 70.50991712245255
    vertex 15.84912817268408 13.687852262406002 70.50991696558101
  endloop
endfacet
facet normal 0.3982019966828109 -0.9172977541877132 2.7337668301938628e-08
  outer loop
    vertex 15.849128172684075 13.687852560675797 80.51816696558103
    vertex 3.6275862761771025 8.382440699026562 80.518167123695
    vertex 15.84912817268408 13.687852262406002 70.50991696558101
  endloop
endfacet
facet normal -0.9950538553671037 2.9604316559416387e-09 0.09933692626140131
  outer loop
    vertex 2.6284556392841827 8.424129373182742 70.50991712245255
    vertex 3.6275862761762507 26.353911409049616 80.51816658810216
    vertex 2.6284556392833593 26.39560008320573 70.50991658685972
  endloop
endfacet
facet normal -0.9950538553671037 2.9604316559416387e-09 0.09933692626140131
  outer loop
    vertex 3.6275862761762507 26.353911409049616 80.51816658810216
    vertex 2.6284556392841827 8.424129373182742 70.50991712245255
    vertex 3.6275862761771025 8.382440699026562 80.518167123695
  endloop
endfacet
facet normal -1.5522304000895354e-15 2.980239305103418e-08 0.9999999999999996
  outer loop
    vertex 37.51368607865524 26.39560038147719 80.51816658685978
    vertex 36.5136860786554 23.032417292008166 80.51816668709066
    vertex 36.51368607865593 11.580861520105499 80.51816702837444
  endloop
endfacet
facet normal -1.5522304000895354e-15 2.980239305103418e-08 0.9999999999999996
  outer loop
    vertex 36.5136860786554 23.032417292008166 80.51816668709066
    vertex 37.51368607865524 26.39560038147719 80.51816658685978
    vertex 27.371165137104008 20.34010370369711 80.51816676732804
  endloop
endfacet
facet normal -1.5522304000895354e-15 2.980239305103418e-08 0.9999999999999996
  outer loop
    vertex 36.5136860786554 23.032417292008166 80.51816668709066
    vertex 27.371165137104008 20.34010370369711 80.51816676732804
    vertex 26.824729954993376 17.766872634227706 80.51816684401649
  endloop
endfacet
facet normal -1.5522304000895354e-15 2.980239305103418e-08 0.9999999999999996
  outer loop
    vertex 26.824729954993376 17.766872634227706 80.51816684401649
    vertex 27.371165137104008 20.34010370369711 80.51816676732804
    vertex 26.313998548279795 21.717830025572745 80.51816672626849
  endloop
endfacet
facet normal -1.5522304000895354e-15 2.980239305103418e-08 0.9999999999999996
  outer loop
    vertex 26.824729954993376 17.766872634227706 80.51816684401649
    vertex 26.313998548279795 21.717830025572745 80.51816672626849
    vertex 24.887581792825138 20.291413270117925 80.51816676877912
  endloop
endfacet
facet normal -1.5522304000895354e-15 2.980239305103418e-08 0.9999999999999996
  outer loop
    vertex 24.887581792825138 20.291413270117925 80.51816676877912
    vertex 26.313998548279795 21.717830025572745 80.51816672626849
    vertex 24.936272226404192 22.77499661439673 80.51816669476239
  endloop
endfacet
facet normal -1.5522304000895354e-15 2.980239305103418e-08 0.9999999999999996
  outer loop
    vertex 24.887581792825138 20.291413270117925 80.51816676877912
    vertex 24.936272226404192 22.77499661439673 80.51816669476239
    vertex 23.33187594351255 23.43955931419143 80.51816667495686
  endloop
endfacet
facet normal -1.5522304000895354e-15 2.980239305103418e-08 0.9999999999999996
  outer loop
    vertex 24.887581792825138 20.291413270117925 80.51816676877912
    vertex 23.33187594351255 23.43955931419143 80.51816667495686
    vertex 23.92764326582416 21.02800000868645 80.51816674682709
  endloop
endfacet
facet normal -1.5522304000895354e-15 2.980239305103418e-08 0.9999999999999996
  outer loop
    vertex 23.92764326582416 21.02800000868645 80.51816674682709
    vertex 23.33187594351255 23.43955931419143 80.51816667495686
    vertex 22.809771174632402 21.491037789856396 80.51816673302746
  endloop
endfacet
facet normal -1.5522304000895354e-15 2.980239305103418e-08 0.9999999999999996
  outer loop
    vertex 22.809771174632402 21.491037789856396 80.51816673302746
    vertex 23.33187594351255 23.43955931419143 80.51816667495686
    vertex 21.610146654893732 23.666229275207296 80.51816666820154
  endloop
endfacet
facet normal -1.5522304000895354e-15 2.980239305103418e-08 0.9999999999999996
  outer loop
    vertex 22.809771174632402 21.491037789856396 80.51816673302746
    vertex 21.610146654893732 23.666229275207296 80.51816666820154
    vertex 21.610146654893832 21.648971354047045 80.51816672832067
  endloop
endfacet
facet normal -1.5522304000895354e-15 2.980239305103418e-08 0.9999999999999996
  outer loop
    vertex 21.610146654893832 21.648971354047045 80.51816672832067
    vertex 21.610146654893732 23.666229275207296 80.51816666820154
    vertex 20.410522135155272 21.491037789856236 80.51816673302744
  endloop
endfacet
facet normal -1.5522304000895354e-15 2.980239305103418e-08 0.9999999999999996
  outer loop
    vertex 20.410522135155272 21.491037789856236 80.51816673302744
    vertex 21.610146654893732 23.666229275207296 80.51816666820154
    vertex 19.888417366274936 23.439559314191207 80.51816667495683
  endloop
endfacet
facet normal -1.5522304000895354e-15 2.980239305103418e-08 0.9999999999999996
  outer loop
    vertex 20.410522135155272 21.491037789856236 80.51816673302744
    vertex 19.888417366274936 23.439559314191207 80.51816667495683
    vertex 19.292650043963565 21.028000008686224 80.51816674682705
  endloop
endfacet
facet normal -1.5522304000895354e-15 2.980239305103418e-08 0.9999999999999996
  outer loop
    vertex 19.292650043963565 21.028000008686224 80.51816674682705
    vertex 19.888417366274936 23.439559314191207 80.51816667495683
    vertex 18.28402108338334 22.774996614396347 80.51816669476236
  endloop
endfacet
facet normal -1.5522304000895354e-15 2.980239305103418e-08 0.9999999999999996
  outer loop
    vertex 19.292650043963565 21.028000008686224 80.51816674682705
    vertex 18.28402108338334 22.774996614396347 80.51816669476236
    vertex 18.332711516962622 20.291413270117562 80.51816676877911
  endloop
endfacet
facet normal -1.5522304000895354e-15 2.980239305103418e-08 0.9999999999999996
  outer loop
    vertex 18.332711516962622 20.291413270117562 80.51816676877911
    vertex 18.28402108338334 22.774996614396347 80.51816669476236
    vertex 16.465475659436272 17.857984123510096 80.51816684130114
  endloop
endfacet
facet normal -1.5522304000895354e-15 2.980239305103418e-08 0.9999999999999996
  outer loop
    vertex 16.465475659436272 17.857984123510096 80.51816684130114
    vertex 18.28402108338334 22.774996614396347 80.51816669476236
    vertex 16.90629476150783 21.717830025572248 80.51816672626849
  endloop
endfacet
facet normal -1.5522304000895354e-15 2.980239305103418e-08 0.9999999999999996
  outer loop
    vertex 16.465475659436272 17.857984123510096 80.51816684130114
    vertex 16.90629476150783 21.717830025572248 80.51816672626849
    vertex 15.849128172683772 20.34010370369666 80.51816676732803
  endloop
endfacet
facet normal -1.5522304000895354e-15 2.980239305103418e-08 0.9999999999999996
  outer loop
    vertex 16.465475659436272 17.857984123510096 80.51816684130114
    vertex 15.849128172683772 20.34010370369666 80.51816676732803
    vertex 4.628455639283474 23.279723087677695 80.51816667972031
  endloop
endfacet
facet normal -1.5522304000895354e-15 2.980239305103418e-08 0.9999999999999996
  outer loop
    vertex 4.628455639283474 23.279723087677695 80.51816667972031
    vertex 15.849128172683772 20.34010370369666 80.51816676732803
    vertex 3.6275862761762507 26.353911409049616 80.51816658810216
  endloop
endfacet
facet normal -1.5522304000895354e-15 2.980239305103418e-08 0.9999999999999996
  outer loop
    vertex 4.628455639283474 23.279723087677695 80.51816667972031
    vertex 3.6275862761762507 26.353911409049616 80.51816658810216
    vertex 3.6275862761771025 8.382440699026562 80.518167123695
  endloop
endfacet
facet normal -1.5522304000895354e-15 2.980239305103418e-08 0.9999999999999996
  outer loop
    vertex 37.513686078656065 8.42412967145416 80.5181671224526
    vertex 36.51368607865593 11.580861520105499 80.51816702837444
    vertex 27.371165137104303 13.687852560676271 80.51816696558105
  endloop
endfacet
facet normal -1.5522304000895354e-15 2.980239305103418e-08 0.9999999999999996
  outer loop
    vertex 36.51368607865593 11.580861520105499 80.51816702837444
    vertex 37.513686078656065 8.42412967145416 80.5181671224526
    vertex 37.51368607865524 26.39560038147719 80.51816658685978
  endloop
endfacet
facet normal -1.5522304000895354e-15 2.980239305103418e-08 0.9999999999999996
  outer loop
    vertex 27.371165137104303 13.687852560676271 80.51816696558105
    vertex 36.51368607865593 11.580861520105499 80.51816702837444
    vertex 26.766630571548816 16.18536703949412 80.51816689114912
  endloop
endfacet
facet normal -1.5522304000895354e-15 2.980239305103418e-08 0.9999999999999996
  outer loop
    vertex 27.371165137104303 13.687852560676271 80.51816696558105
    vertex 26.766630571548816 16.18536703949412 80.51816689114912
    vertex 26.31399854828026 12.310126238800661 80.51816700664058
  endloop
endfacet
facet normal -1.5522304000895354e-15 2.980239305103418e-08 0.9999999999999996
  outer loop
    vertex 26.31399854828026 12.310126238800661 80.51816700664058
    vertex 26.766630571548816 16.18536703949412 80.51816689114912
    vertex 24.887581792825483 13.736542994255435 80.51816696412995
  endloop
endfacet
facet normal -1.5522304000895354e-15 2.980239305103418e-08 0.9999999999999996
  outer loop
    vertex 26.31399854828026 12.310126238800661 80.51816700664058
    vertex 24.887581792825483 13.736542994255435 80.51816696412995
    vertex 24.936272226404718 11.25295964997656 80.51816703814666
  endloop
endfacet
facet normal -1.5522304000895354e-15 2.980239305103418e-08 0.9999999999999996
  outer loop
    vertex 24.936272226404718 11.25295964997656 80.51816703814666
    vertex 24.887581792825483 13.736542994255435 80.51816696412995
    vertex 23.33187594351313 10.588396950181771 80.51816705795224
  endloop
endfacet
facet normal -1.5522304000895354e-15 2.980239305103418e-08 0.9999999999999996
  outer loop
    vertex 23.33187594351313 10.588396950181771 80.51816705795224
    vertex 24.887581792825483 13.736542994255435 80.51816696412995
    vertex 23.9276432658245 12.999956255686751 80.518166986082
  endloop
endfacet
facet normal -1.5522304000895354e-15 2.980239305103418e-08 0.9999999999999996
  outer loop
    vertex 23.33187594351313 10.588396950181771 80.51816705795224
    vertex 23.9276432658245 12.999956255686751 80.518166986082
    vertex 22.809771174632804 12.536918474516671 80.51816699988163
  endloop
endfacet
facet normal -1.5522304000895354e-15 2.980239305103418e-08 0.9999999999999996
  outer loop
    vertex 23.33187594351313 10.588396950181771 80.51816705795224
    vertex 22.809771174632804 12.536918474516671 80.51816699988163
    vertex 21.61014665489434 10.361726989165636 80.51816706470755
  endloop
endfacet
facet normal -1.5522304000895354e-15 2.980239305103418e-08 0.9999999999999996
  outer loop
    vertex 21.61014665489434 10.361726989165636 80.51816706470755
    vertex 22.809771174632804 12.536918474516671 80.51816699988163
    vertex 21.610146654894233 12.378984910325975 80.51816700458843
  endloop
endfacet
facet normal -1.5522304000895354e-15 2.980239305103418e-08 0.9999999999999996
  outer loop
    vertex 21.61014665489434 10.361726989165636 80.51816706470755
    vertex 21.610146654894233 12.378984910325975 80.51816700458843
    vertex 19.88841736627553 10.588396950181613 80.51816705795223
  endloop
endfacet
facet normal -1.5522304000895354e-15 2.980239305103418e-08 0.9999999999999996
  outer loop
    vertex 19.88841736627553 10.588396950181613 80.51816705795223
    vertex 21.610146654894233 12.378984910325975 80.51816700458843
    vertex 20.410522135155627 12.536918474516536 80.51816699988161
  endloop
endfacet
facet normal -1.5522304000895354e-15 2.980239305103418e-08 0.9999999999999996
  outer loop
    vertex 19.88841736627553 10.588396950181613 80.51816705795223
    vertex 20.410522135155627 12.536918474516536 80.51816699988161
    vertex 19.29265004396397 12.999956255686458 80.51816698608195
  endloop
endfacet
facet normal -1.5522304000895354e-15 2.980239305103418e-08 0.9999999999999996
  outer loop
    vertex 19.88841736627553 10.588396950181613 80.51816705795223
    vertex 19.29265004396397 12.999956255686458 80.51816698608195
    vertex 18.284021083383877 11.252959649976178 80.51816703814663
  endloop
endfacet
facet normal -1.5522304000895354e-15 2.980239305103418e-08 0.9999999999999996
  outer loop
    vertex 18.284021083383877 11.252959649976178 80.51816703814663
    vertex 19.29265004396397 12.999956255686458 80.51816698608195
    vertex 18.332711516962945 13.736542994254984 80.51816696412993
  endloop
endfacet
facet normal -1.5522304000895354e-15 2.980239305103418e-08 0.9999999999999996
  outer loop
    vertex 18.284021083383877 11.252959649976178 80.51816703814663
    vertex 18.332711516962945 13.736542994254984 80.51816696412993
    vertex 16.514868435483372 16.10560222188278 80.5181668935263
  endloop
endfacet
facet normal -1.5522304000895354e-15 2.980239305103418e-08 0.9999999999999996
  outer loop
    vertex 18.284021083383877 11.252959649976178 80.51816703814663
    vertex 16.514868435483372 16.10560222188278 80.5181668935263
    vertex 16.90629476150826 12.310126238800278 80.51816700664057
  endloop
endfacet
facet normal -1.5522304000895354e-15 2.980239305103418e-08 0.9999999999999996
  outer loop
    vertex 16.90629476150826 12.310126238800278 80.51816700664057
    vertex 16.514868435483372 16.10560222188278 80.5181668935263
    vertex 15.849128172684075 13.687852560675797 80.51816696558103
  endloop
endfacet
facet normal -1.5522304000895354e-15 2.980239305103418e-08 0.9999999999999996
  outer loop
    vertex 15.849128172684075 13.687852560675797 80.51816696558103
    vertex 16.514868435483372 16.10560222188278 80.5181668935263
    vertex 4.6284556392840495 11.373105977985507 80.518167034566
  endloop
endfacet
facet normal -1.5522304000895354e-15 2.980239305103418e-08 0.9999999999999996
  outer loop
    vertex 15.849128172684075 13.687852560675797 80.51816696558103
    vertex 4.6284556392840495 11.373105977985507 80.518167034566
    vertex 3.6275862761771025 8.382440699026562 80.518167123695
  endloop
endfacet
facet normal -1.5522304000895354e-15 2.980239305103418e-08 0.9999999999999996
  outer loop
    vertex 3.6275862761771025 8.382440699026562 80.518167123695
    vertex 4.6284556392840495 11.373105977985507 80.518167034566
    vertex 4.628455639283474 23.279723087677695 80.51816667972031
  endloop
endfacet
facet normal 0.4161316581765435 0.9085200883533077 -0.037758338439853115
  outer loop
    vertex 3.6275862761762507 26.353911409049616 80.51816658810216
    vertex 15.849128172683782 20.340103405426866 70.50991676732802
    vertex 2.6284556392833593 26.39560008320573 70.50991658685972
  endloop
endfacet
facet normal 0.44150960885869367 0.8972565214504952 -2.674039102019512e-08
  outer loop
    vertex 15.849128172683772 20.34010370369666 80.51816676732803
    vertex 15.849128172683782 20.340103405426866 70.50991676732802
    vertex 3.6275862761762507 26.353911409049616 80.51816658810216
  endloop
endfacet
facet normal 8.76069473048259e-16 -2.9802392166006987e-08 -0.9999999999999996
  outer loop
    vertex 23.331875943512564 23.43955901592164 70.50991667495684
    vertex 23.669044788990032 30.910165868806214 70.5099164523149
    vertex 23.669044788990387 23.299899107314967 70.50991667911903
  endloop
endfacet
facet normal 8.76069473048259e-16 -2.9802392166006987e-08 -0.9999999999999996
  outer loop
    vertex 23.669044788990032 30.910165868806214 70.5099164523149
    vertex 23.331875943512564 23.43955901592164 70.50991667495684
    vertex 18.669044788990035 30.910165868805944 70.50991645231488
  endloop
endfacet
facet normal 8.76069473048259e-16 -2.9802392166006987e-08 -0.9999999999999996
  outer loop
    vertex 18.669044788990035 30.910165868805944 70.50991645231488
    vertex 23.331875943512564 23.43955901592164 70.50991667495684
    vertex 21.610146654893736 23.6662289769375 70.50991666820153
  endloop
endfacet
facet normal 8.76069473048259e-16 -2.9802392166006987e-08 -0.9999999999999996
  outer loop
    vertex 18.669044788990035 30.910165868805944 70.50991645231488
    vertex 21.610146654893736 23.6662289769375 70.50991666820153
    vertex 19.888417366274947 23.43955901592141 70.50991667495684
  endloop
endfacet
facet normal 8.76069473048259e-16 -2.9802392166006987e-08 -0.9999999999999996
  outer loop
    vertex 18.669044788990035 30.910165868805944 70.50991645231488
    vertex 19.888417366274947 23.43955901592141 70.50991667495684
    vertex 18.6690447889904 22.934478356824194 70.50991669000945
  endloop
endfacet
facet normal -4.575791273810335e-15 2.980239297536931e-08 0.9999999999999996
  outer loop
    vertex 23.669044788990014 30.91016604762058 76.5099164523149
    vertex 23.33187594351255 23.43955919473598 76.50991667495684
    vertex 23.669044788990366 23.299899286129335 76.50991667911904
  endloop
endfacet
facet normal -4.575791273810335e-15 2.980239297536931e-08 0.9999999999999996
  outer loop
    vertex 23.33187594351255 23.43955919473598 76.50991667495684
    vertex 23.669044788990014 30.91016604762058 76.5099164523149
    vertex 18.669044788990007 30.91016604762031 76.50991645231485
  endloop
endfacet
facet normal -4.575791273810335e-15 2.980239297536931e-08 0.9999999999999996
  outer loop
    vertex 23.33187594351255 23.43955919473598 76.50991667495684
    vertex 18.669044788990007 30.91016604762031 76.50991645231485
    vertex 21.610146654893732 23.666229155751868 76.50991666820153
  endloop
endfacet
facet normal -4.575791273810335e-15 2.980239297536931e-08 0.9999999999999996
  outer loop
    vertex 21.610146654893732 23.666229155751868 76.50991666820153
    vertex 18.669044788990007 30.91016604762031 76.50991645231485
    vertex 19.888417366274926 23.43955919473578 76.50991667495684
  endloop
endfacet
facet normal -4.575791273810335e-15 2.980239297536931e-08 0.9999999999999996
  outer loop
    vertex 19.888417366274926 23.43955919473578 76.50991667495684
    vertex 18.669044788990007 30.91016604762031 76.50991645231485
    vertex 18.669044788990373 22.93447853563856 76.50991669000943
  endloop
endfacet
facet normal -1.0 -4.6314516842514196e-14 -4.699943652866705e-15
  outer loop
    vertex 18.6690447889904 22.934478356824194 70.50991669000945
    vertex 18.669044788990007 30.91016604762031 76.50991645231485
    vertex 18.669044788990035 30.910165868805944 70.50991645231488
  endloop
endfacet
facet normal -1.0 -4.6314516842514196e-14 -4.699943652866705e-15
  outer loop
    vertex 18.669044788990007 30.91016604762031 76.50991645231485
    vertex 18.6690447889904 22.934478356824194 70.50991669000945
    vertex 18.669044788990373 22.93447853563856 76.50991669000943
  endloop
endfacet
facet normal -6.026796581474575e-14 0.9999999999999996 -2.980239159927851e-08
  outer loop
    vertex 18.669044788990035 30.910165868805944 70.50991645231488
    vertex 20.669044788990032 30.91016593240361 72.64389104853045
    vertex 23.669044788990032 30.910165868806214 70.5099164523149
  endloop
endfacet
facet normal -6.026796581474575e-14 0.9999999999999996 -2.980239159927851e-08
  outer loop
    vertex 20.669044788990032 30.91016593240361 72.64389104853045
    vertex 18.669044788990035 30.910165868805944 70.50991645231488
    vertex 20.46193800780348 30.91016593713971 72.80280967112833
  endloop
endfacet
facet normal -6.026796581474575e-14 0.9999999999999996 -2.980239159927851e-08
  outer loop
    vertex 20.46193800780348 30.91016593713971 72.80280967112833
    vertex 18.669044788990035 30.910165868805944 70.50991645231488
    vertex 20.303019385205566 30.91016594331201 73.00991645231488
  endloop
endfacet
facet normal -6.026796581474575e-14 0.9999999999999996 -2.980239159927851e-08
  outer loop
    vertex 20.303019385205566 30.91016594331201 73.00991645231488
    vertex 18.669044788990035 30.910165868805944 70.50991645231488
    vertex 18.669044788990007 30.91016604762031 76.50991645231485
  endloop
endfacet
facet normal -6.026796581474575e-14 0.9999999999999996 -2.980239159927851e-08
  outer loop
    vertex 23.669044788990032 30.910165868806214 70.5099164523149
    vertex 20.669044788990032 30.91016593240361 72.64389104853045
    vertex 20.910225743887494 30.910165929426334 72.54399062602582
  endloop
endfacet
facet normal -6.026796581474575e-14 0.9999999999999996 -2.980239159927851e-08
  outer loop
    vertex 23.669044788990032 30.910165868806214 70.5099164523149
    vertex 20.910225743887494 30.910165929426334 72.54399062602582
    vertex 21.169044788990014 30.910165928410876 72.50991645231488
  endloop
endfacet
facet normal -6.026796581474575e-14 0.9999999999999996 -2.980239159927851e-08
  outer loop
    vertex 20.303019385205566 30.91016594331201 73.00991645231488
    vertex 18.669044788990007 30.91016604762031 76.50991645231485
    vertex 20.20311896270095 30.910165950499763 73.25109740721237
  endloop
endfacet
facet normal -6.026796581474575e-14 0.9999999999999996 -2.980239159927851e-08
  outer loop
    vertex 20.20311896270095 30.910165950499763 73.25109740721237
    vertex 18.669044788990007 30.91016604762031 76.50991645231485
    vertex 20.169044788990025 30.910165958213206 73.50991645231487
  endloop
endfacet
facet normal -6.026796581474575e-14 0.9999999999999996 -2.980239159927851e-08
  outer loop
    vertex 20.169044788990025 30.910165958213206 73.50991645231487
    vertex 18.669044788990007 30.91016604762031 76.50991645231485
    vertex 20.203118962700945 30.910165965926627 73.7687354974174
  endloop
endfacet
facet normal -6.026796581474575e-14 0.9999999999999996 -2.980239159927851e-08
  outer loop
    vertex 20.203118962700945 30.910165965926627 73.7687354974174
    vertex 18.669044788990007 30.91016604762031 76.50991645231485
    vertex 20.303019385205584 30.910165973114406 74.00991645231487
  endloop
endfacet
facet normal -6.026796581474575e-14 0.9999999999999996 -2.980239159927851e-08
  outer loop
    vertex 20.303019385205584 30.910165973114406 74.00991645231487
    vertex 18.669044788990007 30.91016604762031 76.50991645231485
    vertex 20.46193800780348 30.91016597928666 74.21702323350142
  endloop
endfacet
facet normal -6.026796581474575e-14 0.9999999999999996 -2.980239159927851e-08
  outer loop
    vertex 20.46193800780348 30.91016597928666 74.21702323350142
    vertex 18.669044788990007 30.91016604762031 76.50991645231485
    vertex 20.669044788990032 30.91016598402287 74.3759418560993
  endloop
endfacet
facet normal -6.026796581474575e-14 0.9999999999999996 -2.980239159927851e-08
  outer loop
    vertex 20.669044788990032 30.91016598402287 74.3759418560993
    vertex 18.669044788990007 30.91016604762031 76.50991645231485
    vertex 20.910225743887505 30.91016598700015 74.47584227860395
  endloop
endfacet
facet normal -6.026796581474575e-14 0.9999999999999996 -2.980239159927851e-08
  outer loop
    vertex 20.910225743887505 30.91016598700015 74.47584227860395
    vertex 18.669044788990007 30.91016604762031 76.50991645231485
    vertex 21.169044788990025 30.910165988015674 74.50991645231487
  endloop
endfacet
facet normal -6.026796581474575e-14 0.9999999999999996 -2.980239159927851e-08
  outer loop
    vertex 23.669044788990032 30.910165868806214 70.5099164523149
    vertex 22.03507019277445 30.910165943312144 73.00991645231488
    vertex 23.669044788990014 30.91016604762058 76.5099164523149
  endloop
endfacet
facet normal -6.026796581474575e-14 0.9999999999999996 -2.980239159927851e-08
  outer loop
    vertex 22.03507019277445 30.910165943312144 73.00991645231488
    vertex 23.669044788990032 30.910165868806214 70.5099164523149
    vertex 21.876151570176567 30.91016593713987 72.80280967112834
  endloop
endfacet
facet normal -6.026796581474575e-14 0.9999999999999996 -2.980239159927851e-08
  outer loop
    vertex 21.876151570176567 30.91016593713987 72.80280967112834
    vertex 23.669044788990032 30.910165868806214 70.5099164523149
    vertex 21.66904478899002 30.9101659324037 72.64389104853045
  endloop
endfacet
facet normal -6.026796581474575e-14 0.9999999999999996 -2.980239159927851e-08
  outer loop
    vertex 21.66904478899002 30.9101659324037 72.64389104853045
    vertex 23.669044788990032 30.910165868806214 70.5099164523149
    vertex 21.42786383409255 30.91016592942636 72.54399062602582
  endloop
endfacet
facet normal -6.026796581474575e-14 0.9999999999999996 -2.980239159927851e-08
  outer loop
    vertex 21.42786383409255 30.91016592942636 72.54399062602582
    vertex 23.669044788990032 30.910165868806214 70.5099164523149
    vertex 21.169044788990014 30.910165928410876 72.50991645231488
  endloop
endfacet
facet normal -6.026796581474575e-14 0.9999999999999996 -2.980239159927851e-08
  outer loop
    vertex 23.669044788990014 30.91016604762058 76.5099164523149
    vertex 22.03507019277445 30.910165943312144 73.00991645231488
    vertex 22.134970615279094 30.910165950499923 73.25109740721236
  endloop
endfacet
facet normal -6.026796581474575e-14 0.9999999999999996 -2.980239159927851e-08
  outer loop
    vertex 23.669044788990014 30.91016604762058 76.5099164523149
    vertex 22.134970615279094 30.910165950499923 73.25109740721236
    vertex 22.169044788990004 30.910165958213273 73.50991645231488
  endloop
endfacet
facet normal -6.026796581474575e-14 0.9999999999999996 -2.980239159927851e-08
  outer loop
    vertex 23.669044788990014 30.91016604762058 76.5099164523149
    vertex 22.169044788990004 30.910165958213273 73.50991645231488
    vertex 22.134970615279066 30.910165965926787 73.7687354974174
  endloop
endfacet
facet normal -6.026796581474575e-14 0.9999999999999996 -2.980239159927851e-08
  outer loop
    vertex 23.669044788990014 30.91016604762058 76.5099164523149
    vertex 22.134970615279066 30.910165965926787 73.7687354974174
    vertex 22.035070192774462 30.91016597311454 74.00991645231487
  endloop
endfacet
facet normal -6.026796581474575e-14 0.9999999999999996 -2.980239159927851e-08
  outer loop
    vertex 23.669044788990014 30.91016604762058 76.5099164523149
    vertex 22.035070192774462 30.91016597311454 74.00991645231487
    vertex 21.876151570176567 30.910165979286816 74.21702323350142
  endloop
endfacet
facet normal -6.026796581474575e-14 0.9999999999999996 -2.980239159927851e-08
  outer loop
    vertex 23.669044788990014 30.91016604762058 76.5099164523149
    vertex 21.876151570176567 30.910165979286816 74.21702323350142
    vertex 21.66904478899002 30.91016598402296 74.3759418560993
  endloop
endfacet
facet normal -6.026796581474575e-14 0.9999999999999996 -2.980239159927851e-08
  outer loop
    vertex 23.669044788990014 30.91016604762058 76.5099164523149
    vertex 21.66904478899002 30.91016598402296 74.3759418560993
    vertex 21.42786383409255 30.91016598700017 74.47584227860395
  endloop
endfacet
facet normal -6.026796581474575e-14 0.9999999999999996 -2.980239159927851e-08
  outer loop
    vertex 23.669044788990014 30.91016604762058 76.5099164523149
    vertex 21.42786383409255 30.91016598700017 74.47584227860395
    vertex 21.169044788990025 30.910165988015674 74.50991645231487
  endloop
endfacet
facet normal -6.026796581474575e-14 0.9999999999999996 -2.980239159927851e-08
  outer loop
    vertex 23.669044788990014 30.91016604762058 76.5099164523149
    vertex 21.169044788990025 30.910165988015674 74.50991645231487
    vertex 18.669044788990007 30.91016604762031 76.50991645231485
  endloop
endfacet
facet normal 1.0 4.653965204712131e-14 3.0549631980041804e-15
  outer loop
    vertex 23.669044788990366 23.299899286129335 76.50991667911904
    vertex 23.669044788990032 30.910165868806214 70.5099164523149
    vertex 23.669044788990014 30.91016604762058 76.5099164523149
  endloop
endfacet
facet normal 1.0 4.653965204712131e-14 3.0549631980041804e-15
  outer loop
    vertex 23.669044788990032 30.910165868806214 70.5099164523149
    vertex 23.669044788990366 23.299899286129335 76.50991667911904
    vertex 23.669044788990387 23.299899107314967 70.50991667911903
  endloop
endfacet
facet normal 0.3826834323652463 0.9238795325112215 -2.7533819856246018e-08
  outer loop
    vertex 23.33187594351255 23.43955919473598 76.50991667495684
    vertex 23.669044788990387 23.299899107314967 70.50991667911903
    vertex 23.331875943512564 23.43955901592164 70.50991667495684
  endloop
endfacet
facet normal 0.3826834323652463 0.9238795325112215 -2.7533819856246018e-08
  outer loop
    vertex 23.669044788990387 23.299899107314967 70.50991667911903
    vertex 23.33187594351255 23.43955919473598 76.50991667495684
    vertex 23.669044788990366 23.299899286129335 76.50991667911904
  endloop
endfacet
facet normal 0.13052619221996187 0.9914448613738218 -2.9547429137009423e-08
  outer loop
    vertex 21.610146654893732 23.666229155751868 76.50991666820153
    vertex 23.331875943512564 23.43955901592164 70.50991667495684
    vertex 21.610146654893736 23.6662289769375 70.50991666820153
  endloop
endfacet
facet normal 0.13052619221996187 0.9914448613738218 -2.9547429137009423e-08
  outer loop
    vertex 23.331875943512564 23.43955901592164 70.50991667495684
    vertex 21.610146654893732 23.666229155751868 76.50991666820153
    vertex 23.33187594351255 23.43955919473598 76.50991667495684
  endloop
endfacet
facet normal -0.13052619222008607 0.9914448613738055 -2.9547429631960774e-08
  outer loop
    vertex 19.888417366274926 23.43955919473578 76.50991667495684
    vertex 21.610146654893736 23.6662289769375 70.50991666820153
    vertex 19.888417366274947 23.43955901592141 70.50991667495684
  endloop
endfacet
facet normal -0.13052619222008607 0.9914448613738055 -2.9547429631960774e-08
  outer loop
    vertex 21.610146654893736 23.6662289769375 70.50991666820153
    vertex 19.888417366274926 23.43955919473578 76.50991667495684
    vertex 21.610146654893732 23.666229155751868 76.50991666820153
  endloop
endfacet
facet normal -0.3826834323651625 0.9238795325112563 -2.7533822465107535e-08
  outer loop
    vertex 18.669044788990373 22.93447853563856 76.50991669000943
    vertex 19.888417366274947 23.43955901592141 70.50991667495684
    vertex 18.6690447889904 22.934478356824194 70.50991669000945
  endloop
endfacet
facet normal -0.3826834323651625 0.9238795325112563 -2.7533822465107535e-08
  outer loop
    vertex 19.888417366274947 23.43955901592141 70.50991667495684
    vertex 18.669044788990373 22.93447853563856 76.50991669000943
    vertex 19.888417366274926 23.43955919473578 76.50991667495684
  endloop
endfacet
facet normal -7.22922985208456e-14 0.9999999999999996 -2.980239292849074e-08
  outer loop
    vertex 20.910225743887914 22.910165929426373 72.54399086444495
    vertex 21.427863834092964 22.910165929426416 72.54399086444495
    vertex 21.16904478899042 22.91016592841089 72.50991669073402
  endloop
endfacet
facet normal -7.22922985208456e-14 0.9999999999999996 -2.980239292849074e-08
  outer loop
    vertex 21.427863834092964 22.910165929426416 72.54399086444495
    vertex 20.910225743887914 22.910165929426373 72.54399086444495
    vertex 20.669044788990448 22.910165932403647 72.64389128694958
  endloop
endfacet
facet normal -7.22922985208456e-14 0.9999999999999996 -2.980239292849074e-08
  outer loop
    vertex 21.427863834092964 22.910165929426416 72.54399086444495
    vertex 20.669044788990448 22.910165932403647 72.64389128694958
    vertex 21.669044788990433 22.910165932403693 72.64389128694958
  endloop
endfacet
facet normal -7.22922985208456e-14 0.9999999999999996 -2.980239292849074e-08
  outer loop
    vertex 21.669044788990433 22.910165932403693 72.64389128694958
    vertex 20.669044788990448 22.910165932403647 72.64389128694958
    vertex 20.46193800780389 22.910165937139748 72.80280990954746
  endloop
endfacet
facet normal -7.22922985208456e-14 0.9999999999999996 -2.980239292849074e-08
  outer loop
    vertex 21.669044788990433 22.910165932403693 72.64389128694958
    vertex 20.46193800780389 22.910165937139748 72.80280990954746
    vertex 21.876151570176972 22.910165937139837 72.80280990954748
  endloop
endfacet
facet normal -7.22922985208456e-14 0.9999999999999996 -2.980239292849074e-08
  outer loop
    vertex 21.876151570176972 22.910165937139837 72.80280990954748
    vertex 20.46193800780389 22.910165937139748 72.80280990954746
    vertex 20.303019385205978 22.910165943312023 73.00991669073402
  endloop
endfacet
facet normal -7.22922985208456e-14 0.9999999999999996 -2.980239292849074e-08
  outer loop
    vertex 21.876151570176972 22.910165937139837 72.80280990954748
    vertex 20.303019385205978 22.910165943312023 73.00991669073402
    vertex 22.035070192774857 22.910165943312112 73.00991669073402
  endloop
endfacet
facet normal -7.22922985208456e-14 0.9999999999999996 -2.980239292849074e-08
  outer loop
    vertex 22.035070192774857 22.910165943312112 73.00991669073402
    vertex 20.303019385205978 22.910165943312023 73.00991669073402
    vertex 20.203118962701357 22.91016595049971 73.2510976456315
  endloop
endfacet
facet normal -7.22922985208456e-14 0.9999999999999996 -2.980239292849074e-08
  outer loop
    vertex 22.035070192774857 22.910165943312112 73.00991669073402
    vertex 20.203118962701357 22.91016595049971 73.2510976456315
    vertex 22.134970615279485 22.91016595049989 73.25109764563149
  endloop
endfacet
facet normal -7.22922985208456e-14 0.9999999999999996 -2.980239292849074e-08
  outer loop
    vertex 22.134970615279485 22.91016595049989 73.25109764563149
    vertex 20.203118962701357 22.91016595049971 73.2510976456315
    vertex 22.169044788990416 22.910165958213312 73.50991669073403
  endloop
endfacet
facet normal -7.22922985208456e-14 0.9999999999999996 -2.980239292849074e-08
  outer loop
    vertex 22.169044788990416 22.910165958213312 73.50991669073403
    vertex 20.203118962701357 22.91016595049971 73.2510976456315
    vertex 20.16904478899042 22.910165958213152 73.50991669073402
  endloop
endfacet
facet normal -7.22922985208456e-14 0.9999999999999996 -2.980239292849074e-08
  outer loop
    vertex 22.169044788990416 22.910165958213312 73.50991669073403
    vertex 20.16904478899042 22.910165958213152 73.50991669073402
    vertex 20.203118962701353 22.910165965926574 73.76873573583654
  endloop
endfacet
facet normal -7.22922985208456e-14 0.9999999999999996 -2.980239292849074e-08
  outer loop
    vertex 22.169044788990416 22.910165958213312 73.50991669073403
    vertex 20.203118962701353 22.910165965926574 73.76873573583654
    vertex 22.134970615279485 22.910165965926755 73.76873573583654
  endloop
endfacet
facet normal -7.22922985208456e-14 0.9999999999999996 -2.980239292849074e-08
  outer loop
    vertex 22.134970615279485 22.910165965926755 73.76873573583654
    vertex 20.203118962701353 22.910165965926574 73.76873573583654
    vertex 20.303019385206003 22.91016597311442 74.00991669073402
  endloop
endfacet
facet normal -7.22922985208456e-14 0.9999999999999996 -2.980239292849074e-08
  outer loop
    vertex 22.134970615279485 22.910165965926755 73.76873573583654
    vertex 20.303019385206003 22.91016597311442 74.00991669073402
    vertex 22.03507019277488 22.910165973114513 74.00991669073402
  endloop
endfacet
facet normal -7.22922985208456e-14 0.9999999999999996 -2.980239292849074e-08
  outer loop
    vertex 22.03507019277488 22.910165973114513 74.00991669073402
    vertex 20.303019385206003 22.91016597311442 74.00991669073402
    vertex 20.461938007803898 22.910165979286695 74.21702347192057
  endloop
endfacet
facet normal -7.22922985208456e-14 0.9999999999999996 -2.980239292849074e-08
  outer loop
    vertex 22.03507019277488 22.910165973114513 74.00991669073402
    vertex 20.461938007803898 22.910165979286695 74.21702347192057
    vertex 21.87615157017699 22.910165979286788 74.21702347192057
  endloop
endfacet
facet normal -7.22922985208456e-14 0.9999999999999996 -2.980239292849074e-08
  outer loop
    vertex 21.87615157017699 22.910165979286788 74.21702347192057
    vertex 20.461938007803898 22.910165979286695 74.21702347192057
    vertex 20.669044788990448 22.910165984022907 74.37594209451845
  endloop
endfacet
facet normal -7.22922985208456e-14 0.9999999999999996 -2.980239292849074e-08
  outer loop
    vertex 21.87615157017699 22.910165979286788 74.21702347192057
    vertex 20.669044788990448 22.910165984022907 74.37594209451845
    vertex 21.66904478899044 22.910165984022953 74.37594209451845
  endloop
endfacet
facet normal -7.22922985208456e-14 0.9999999999999996 -2.980239292849074e-08
  outer loop
    vertex 21.66904478899044 22.910165984022953 74.37594209451845
    vertex 20.669044788990448 22.910165984022907 74.37594209451845
    vertex 20.910225743887935 22.910165987000184 74.4758425170231
  endloop
endfacet
facet normal -7.22922985208456e-14 0.9999999999999996 -2.980239292849074e-08
  outer loop
    vertex 21.66904478899044 22.910165984022953 74.37594209451845
    vertex 20.910225743887935 22.910165987000184 74.4758425170231
    vertex 21.427863834092964 22.91016598700023 74.4758425170231
  endloop
endfacet
facet normal -7.22922985208456e-14 0.9999999999999996 -2.980239292849074e-08
  outer loop
    vertex 21.427863834092964 22.91016598700023 74.4758425170231
    vertex 20.910225743887935 22.910165987000184 74.4758425170231
    vertex 21.16904478899044 22.910165988015688 74.50991669073402
  endloop
endfacet
facet normal 0.6087614290086938 2.3643859789646595e-08 0.7933533402912555
  outer loop
    vertex 20.669044788990032 30.91016593240361 72.64389104853045
    vertex 20.46193800780389 22.910165937139748 72.80280990954746
    vertex 20.669044788990448 22.910165932403647 72.64389128694958
  endloop
endfacet
facet normal 0.6087614290086938 2.3643859789646595e-08 0.7933533402912555
  outer loop
    vertex 20.46193800780389 22.910165937139748 72.80280990954746
    vertex 20.669044788990032 30.91016593240361 72.64389104853045
    vertex 20.46193800780348 30.91016593713971 72.80280967112833
  endloop
endfacet
facet normal 0.7933533402912076 1.81425884864477e-08 0.6087614290087564
  outer loop
    vertex 20.303019385205978 22.910165943312023 73.00991669073402
    vertex 20.46193800780348 30.91016593713971 72.80280967112833
    vertex 20.303019385205566 30.91016594331201 73.00991645231488
  endloop
endfacet
facet normal 0.7933533402912076 1.81425884864477e-08 0.6087614290087564
  outer loop
    vertex 20.46193800780348 30.91016593713971 72.80280967112833
    vertex 20.303019385205978 22.910165943312023 73.00991669073402
    vertex 20.46193800780389 22.910165937139748 72.80280990954746
  endloop
endfacet
facet normal 0.9238795325112998 1.1404929646650342e-08 0.3826834323650581
  outer loop
    vertex 20.203118962701357 22.91016595049971 73.2510976456315
    vertex 20.303019385205566 30.91016594331201 73.00991645231488
    vertex 20.20311896270095 30.910165950499763 73.25109740721237
  endloop
endfacet
facet normal 0.9238795325112998 1.1404929646650342e-08 0.3826834323650581
  outer loop
    vertex 20.303019385205566 30.91016594331201 73.00991645231488
    vertex 20.203118962701357 22.91016595049971 73.2510976456315
    vertex 20.303019385205978 22.910165943312023 73.00991669073402
  endloop
endfacet
facet normal 0.9914448613738105 3.890042930894455e-09 0.13052619222005074
  outer loop
    vertex 20.16904478899042 22.910165958213152 73.50991669073402
    vertex 20.20311896270095 30.910165950499763 73.25109740721237
    vertex 20.169044788990025 30.910165958213206 73.50991645231487
  endloop
endfacet
facet normal 0.9914448613738105 3.890042930894455e-09 0.13052619222005074
  outer loop
    vertex 20.20311896270095 30.910165950499763 73.25109740721237
    vertex 20.16904478899042 22.910165958213152 73.50991669073402
    vertex 20.203118962701357 22.91016595049971 73.2510976456315
  endloop
endfacet
facet normal 0.9914448613738129 -3.8899428051083246e-09 -0.13052619222003226
  outer loop
    vertex 20.203118962701353 22.910165965926574 73.76873573583654
    vertex 20.169044788990025 30.910165958213206 73.50991645231487
    vertex 20.203118962700945 30.910165965926627 73.7687354974174
  endloop
endfacet
facet normal 0.9914448613738129 -3.8899428051083246e-09 -0.13052619222003226
  outer loop
    vertex 20.169044788990025 30.910165958213206 73.50991645231487
    vertex 20.203118962701353 22.910165965926574 73.76873573583654
    vertex 20.16904478899042 22.910165958213152 73.50991669073402
  endloop
endfacet
facet normal 0.9238795325112688 -1.140483406484207e-08 -0.3826834323651335
  outer loop
    vertex 20.303019385206003 22.91016597311442 74.00991669073402
    vertex 20.203118962700945 30.910165965926627 73.7687354974174
    vertex 20.303019385205584 30.910165973114406 74.00991645231487
  endloop
endfacet
facet normal 0.9238795325112688 -1.140483406484207e-08 -0.3826834323651335
  outer loop
    vertex 20.203118962700945 30.910165965926627 73.7687354974174
    vertex 20.303019385206003 22.91016597311442 74.00991669073402
    vertex 20.203118962701353 22.910165965926574 73.76873573583654
  endloop
endfacet
facet normal 0.7933533402912148 -1.814250556746858e-08 -0.608761429008747
  outer loop
    vertex 20.46193800780348 30.91016597928666 74.21702323350142
    vertex 20.303019385206003 22.91016597311442 74.00991669073402
    vertex 20.303019385205584 30.910165973114406 74.00991645231487
  endloop
endfacet
facet normal 0.7933533402912148 -1.814250556746858e-08 -0.608761429008747
  outer loop
    vertex 20.303019385206003 22.91016597311442 74.00991669073402
    vertex 20.46193800780348 30.91016597928666 74.21702323350142
    vertex 20.461938007803898 22.910165979286695 74.21702347192057
  endloop
endfacet
facet normal 0.6087614290087263 -2.3643795952428493e-08 -0.7933533402912306
  outer loop
    vertex 20.461938007803898 22.910165979286695 74.21702347192057
    vertex 20.669044788990032 30.91016598402287 74.3759418560993
    vertex 20.669044788990448 22.910165984022907 74.37594209451845
  endloop
endfacet
facet normal 0.6087614290087263 -2.3643795952428493e-08 -0.7933533402912306
  outer loop
    vertex 20.669044788990032 30.91016598402287 74.3759418560993
    vertex 20.461938007803898 22.910165979286695 74.21702347192057
    vertex 20.46193800780348 30.91016597928666 74.21702323350142
  endloop
endfacet
facet normal 0.38268343236509683 -2.7533800443429443e-08 -0.9238795325112836
  outer loop
    vertex 20.669044788990448 22.910165984022907 74.37594209451845
    vertex 20.910225743887505 30.91016598700015 74.47584227860395
    vertex 20.910225743887935 22.910165987000184 74.4758425170231
  endloop
endfacet
facet normal 0.38268343236509683 -2.7533800443429443e-08 -0.9238795325112836
  outer loop
    vertex 20.910225743887505 30.91016598700015 74.47584227860395
    vertex 20.669044788990448 22.910165984022907 74.37594209451845
    vertex 20.669044788990032 30.91016598402287 74.3759418560993
  endloop
endfacet
facet normal 0.13052619222003511 -2.954742236652271e-08 -0.9914448613738123
  outer loop
    vertex 20.910225743887935 22.910165987000184 74.4758425170231
    vertex 21.169044788990025 30.910165988015674 74.50991645231487
    vertex 21.16904478899044 22.910165988015688 74.50991669073402
  endloop
endfacet
facet normal 0.13052619222003511 -2.954742236652271e-08 -0.9914448613738123
  outer loop
    vertex 21.169044788990025 30.910165988015674 74.50991645231487
    vertex 20.910225743887935 22.910165987000184 74.4758425170231
    vertex 20.910225743887505 30.91016598700015 74.47584227860395
  endloop
endfacet
facet normal -0.1305261922200295 -2.9547436192543053e-08 -0.9914448613738129
  outer loop
    vertex 21.16904478899044 22.910165988015688 74.50991669073402
    vertex 21.42786383409255 30.91016598700017 74.47584227860395
    vertex 21.427863834092964 22.91016598700023 74.4758425170231
  endloop
endfacet
facet normal -0.1305261922200295 -2.9547436192543053e-08 -0.9914448613738129
  outer loop
    vertex 21.42786383409255 30.91016598700017 74.47584227860395
    vertex 21.16904478899044 22.910165988015688 74.50991669073402
    vertex 21.169044788990025 30.910165988015674 74.50991645231487
  endloop
endfacet
facet normal -0.3826834323651044 -2.7533840978895803e-08 -0.9238795325112802
  outer loop
    vertex 21.427863834092964 22.91016598700023 74.4758425170231
    vertex 21.66904478899002 30.91016598402296 74.3759418560993
    vertex 21.66904478899044 22.910165984022953 74.37594209451845
  endloop
endfacet
facet normal -0.3826834323651044 -2.7533840978895803e-08 -0.9238795325112802
  outer loop
    vertex 21.66904478899002 30.91016598402296 74.3759418560993
    vertex 21.427863834092964 22.91016598700023 74.4758425170231
    vertex 21.42786383409255 30.91016598700017 74.47584227860395
  endloop
endfacet
facet normal -0.6087614290087314 -2.3643860220448194e-08 -0.7933533402912265
  outer loop
    vertex 21.66904478899044 22.910165984022953 74.37594209451845
    vertex 21.876151570176567 30.910165979286816 74.21702323350142
    vertex 21.87615157017699 22.910165979286788 74.21702347192057
  endloop
endfacet
facet normal -0.6087614290087314 -2.3643860220448194e-08 -0.7933533402912265
  outer loop
    vertex 21.876151570176567 30.910165979286816 74.21702323350142
    vertex 21.66904478899044 22.910165984022953 74.37594209451845
    vertex 21.66904478899002 30.91016598402296 74.3759418560993
  endloop
endfacet
facet normal -0.7933533402912201 -1.8142589324335583e-08 -0.6087614290087402
  outer loop
    vertex 22.03507019277488 22.910165973114513 74.00991669073402
    vertex 21.876151570176567 30.910165979286816 74.21702323350142
    vertex 22.035070192774462 30.91016597311454 74.00991645231487
  endloop
endfacet
facet normal -0.7933533402912201 -1.8142589324335583e-08 -0.6087614290087402
  outer loop
    vertex 21.876151570176567 30.910165979286816 74.21702323350142
    vertex 22.03507019277488 22.910165973114513 74.00991669073402
    vertex 21.87615157017699 22.910165979286788 74.21702347192057
  endloop
endfacet
facet normal -0.9238795325113222 -1.1404930623617477e-08 -0.3826834323650043
  outer loop
    vertex 22.134970615279485 22.910165965926755 73.76873573583654
    vertex 22.035070192774462 30.91016597311454 74.00991645231487
    vertex 22.134970615279066 30.910165965926787 73.7687354974174
  endloop
endfacet
facet normal -0.9238795325113222 -1.1404930623617477e-08 -0.3826834323650043
  outer loop
    vertex 22.035070192774462 30.91016597311454 74.00991645231487
    vertex 22.134970615279485 22.910165965926755 73.76873573583654
    vertex 22.03507019277488 22.910165973114513 74.00991669073402
  endloop
endfacet
facet normal -0.9914448613738084 -3.890044678507049e-09 -0.1305261922200669
  outer loop
    vertex 22.169044788990004 30.910165958213273 73.50991645231488
    vertex 22.134970615279485 22.910165965926755 73.76873573583654
    vertex 22.134970615279066 30.910165965926787 73.7687354974174
  endloop
endfacet
facet normal -0.9914448613738084 -3.890044678507049e-09 -0.1305261922200669
  outer loop
    vertex 22.134970615279485 22.910165965926755 73.76873573583654
    vertex 22.169044788990004 30.910165958213273 73.50991645231488
    vertex 22.169044788990416 22.910165958213312 73.50991669073403
  endloop
endfacet
facet normal -0.991444861373817 3.889942804924924e-09 0.13052619222000264
  outer loop
    vertex 22.134970615279485 22.91016595049989 73.25109764563149
    vertex 22.169044788990004 30.910165958213273 73.50991645231488
    vertex 22.134970615279094 30.910165950499923 73.25109740721236
  endloop
endfacet
facet normal -0.991444861373817 3.889942804924924e-09 0.13052619222000264
  outer loop
    vertex 22.169044788990004 30.910165958213273 73.50991645231488
    vertex 22.134970615279485 22.91016595049989 73.25109764563149
    vertex 22.169044788990416 22.910165958213312 73.50991669073403
  endloop
endfacet
facet normal -0.9238795325112739 1.1404835692013516e-08 0.3826834323651211
  outer loop
    vertex 22.035070192774857 22.910165943312112 73.00991669073402
    vertex 22.134970615279094 30.910165950499923 73.25109740721236
    vertex 22.03507019277445 30.910165943312144 73.00991645231488
  endloop
endfacet
facet normal -0.9238795325112739 1.1404835692013516e-08 0.3826834323651211
  outer loop
    vertex 22.134970615279094 30.910165950499923 73.25109740721236
    vertex 22.035070192774857 22.910165943312112 73.00991669073402
    vertex 22.134970615279485 22.91016595049989 73.25109764563149
  endloop
endfacet
facet normal -0.7933533402912438 1.8142506688336345e-08 0.6087614290087092
  outer loop
    vertex 21.876151570176972 22.910165937139837 72.80280990954748
    vertex 22.03507019277445 30.910165943312144 73.00991645231488
    vertex 21.876151570176567 30.91016593713987 72.80280967112834
  endloop
endfacet
facet normal -0.7933533402912438 1.8142506688336345e-08 0.6087614290087092
  outer loop
    vertex 22.03507019277445 30.910165943312144 73.00991645231488
    vertex 21.876151570176972 22.910165937139837 72.80280990954748
    vertex 22.035070192774857 22.910165943312112 73.00991669073402
  endloop
endfacet
facet normal -0.608761429008742 2.364379659568921e-08 0.7933533402912185
  outer loop
    vertex 21.876151570176567 30.91016593713987 72.80280967112834
    vertex 21.669044788990433 22.910165932403693 72.64389128694958
    vertex 21.876151570176972 22.910165937139837 72.80280990954748
  endloop
endfacet
facet normal -0.608761429008742 2.364379659568921e-08 0.7933533402912185
  outer loop
    vertex 21.669044788990433 22.910165932403693 72.64389128694958
    vertex 21.876151570176567 30.91016593713987 72.80280967112834
    vertex 21.66904478899002 30.9101659324037 72.64389104853045
  endloop
endfacet
facet normal -0.3826834323650898 2.7533800848259493e-08 0.9238795325112863
  outer loop
    vertex 21.66904478899002 30.9101659324037 72.64389104853045
    vertex 21.427863834092964 22.910165929426416 72.54399086444495
    vertex 21.669044788990433 22.910165932403693 72.64389128694958
  endloop
endfacet
facet normal -0.3826834323650898 2.7533800848259493e-08 0.9238795325112863
  outer loop
    vertex 21.427863834092964 22.910165929426416 72.54399086444495
    vertex 21.66904478899002 30.9101659324037 72.64389104853045
    vertex 21.42786383409255 30.91016592942636 72.54399062602582
  endloop
endfacet
facet normal -0.1305261922200424 2.954742255066198e-08 0.9914448613738112
  outer loop
    vertex 21.42786383409255 30.91016592942636 72.54399062602582
    vertex 21.16904478899042 22.91016592841089 72.50991669073402
    vertex 21.427863834092964 22.910165929426416 72.54399086444495
  endloop
endfacet
facet normal -0.1305261922200424 2.954742255066198e-08 0.9914448613738112
  outer loop
    vertex 21.16904478899042 22.91016592841089 72.50991669073402
    vertex 21.42786383409255 30.91016592942636 72.54399062602582
    vertex 21.169044788990014 30.910165928410876 72.50991645231488
  endloop
endfacet
facet normal 0.13052619222005632 2.954743610049683e-08 0.9914448613738094
  outer loop
    vertex 21.169044788990014 30.910165928410876 72.50991645231488
    vertex 20.910225743887914 22.910165929426373 72.54399086444495
    vertex 21.16904478899042 22.91016592841089 72.50991669073402
  endloop
endfacet
facet normal 0.13052619222005632 2.954743610049683e-08 0.9914448613738094
  outer loop
    vertex 20.910225743887914 22.910165929426373 72.54399086444495
    vertex 21.169044788990014 30.910165928410876 72.50991645231488
    vertex 20.910225743887494 30.910165929426334 72.54399062602582
  endloop
endfacet
facet normal 0.3826834323651012 2.75338409797816e-08 0.9238795325112817
  outer loop
    vertex 20.910225743887494 30.910165929426334 72.54399062602582
    vertex 20.669044788990448 22.910165932403647 72.64389128694958
    vertex 20.910225743887914 22.910165929426373 72.54399086444495
  endloop
endfacet
facet normal 0.3826834323651012 2.75338409797816e-08 0.9238795325112817
  outer loop
    vertex 20.669044788990448 22.910165932403647 72.64389128694958
    vertex 20.910225743887494 30.910165929426334 72.54399062602582
    vertex 20.669044788990032 30.91016593240361 72.64389104853045
  endloop
endfacet
endsolid Mini_ZOWI
